HIERARCHY
ROOT Hips
{
	OFFSET -0.001795 -0.223333 0.028219
	CHANNELS 6 Xposition Yposition Zposition Zrotation Yrotation Xrotation
	JOINT LeftUpLeg
	{
		OFFSET 0.069520 -0.091406 -0.006815
		CHANNELS 3 Zrotation Yrotation Xrotation
		JOINT LeftLeg
		{
			OFFSET 0.034277 -0.375199 -0.004496
			CHANNELS 3 Zrotation Yrotation Xrotation
			JOINT LeftFoot
			{
				OFFSET -0.013596 -0.397961 -0.043693
				CHANNELS 3 Zrotation Yrotation Xrotation
				JOINT LeftToe
				{
					OFFSET 0.026358 -0.055791 0.119288
					CHANNELS 3 Zrotation Yrotation Xrotation
					End Site
					{
						OFFSET 0.000000 0.000000 0.000000
					}
				}
			}
		}
	}
	JOINT RightUpLeg
	{
		OFFSET -0.067670 -0.090522 -0.004320
		CHANNELS 3 Zrotation Yrotation Xrotation
		JOINT RightLeg
		{
			OFFSET -0.038290 -0.382569 -0.008850
			CHANNELS 3 Zrotation Yrotation Xrotation
			JOINT RightFoot
			{
				OFFSET 0.015774 -0.398415 -0.042312
				CHANNELS 3 Zrotation Yrotation Xrotation
				JOINT RightToe
				{
					OFFSET -0.025372 -0.048144 0.123348
					CHANNELS 3 Zrotation Yrotation Xrotation
					End Site
					{
						OFFSET 0.000000 0.000000 0.000000
					}
				}
			}
		}
	}
	JOINT Spine
	{
		OFFSET -0.002533 0.108963 -0.026696
		CHANNELS 3 Zrotation Yrotation Xrotation
		JOINT Spine1
		{
			OFFSET 0.005487 0.135180 0.001092
			CHANNELS 3 Zrotation Yrotation Xrotation
			JOINT Spine2
			{
				OFFSET 0.001457 0.052922 0.025425
				CHANNELS 3 Zrotation Yrotation Xrotation
				JOINT Neck
				{
					OFFSET -0.002778 0.213870 -0.042857
					CHANNELS 3 Zrotation Yrotation Xrotation
					JOINT Head
					{
						OFFSET 0.005152 0.064970 0.051349
						CHANNELS 3 Zrotation Yrotation Xrotation
						End Site
						{
							OFFSET 0.000000 0.000000 0.000000
						}
					}
				}
				JOINT LeftShoulder
				{
					OFFSET 0.078845 0.121749 -0.034090
					CHANNELS 3 Zrotation Yrotation Xrotation
					JOINT LeftArm
					{
						OFFSET 0.090977 0.030469 -0.008868
						CHANNELS 3 Zrotation Yrotation Xrotation
						JOINT LeftForeArm
						{
							OFFSET 0.259612 -0.012772 -0.027456
							CHANNELS 3 Zrotation Yrotation Xrotation
							JOINT LeftHand
							{
								OFFSET 0.249234 0.008986 -0.001171
								CHANNELS 3 Zrotation Yrotation Xrotation
								End Site
								{
									OFFSET 0.000000 0.000000 0.000000
								}
							}
						}
					}
				}
				JOINT RightShoulder
				{
					OFFSET -0.081759 0.118833 -0.038615
					CHANNELS 3 Zrotation Yrotation Xrotation
					JOINT RightArm
					{
						OFFSET -0.096012 0.032551 -0.009143
						CHANNELS 3 Zrotation Yrotation Xrotation
						JOINT RightForeArm
						{
							OFFSET -0.253742 -0.013329 -0.021401
							CHANNELS 3 Zrotation Yrotation Xrotation
							JOINT RightHand
							{
								OFFSET -0.255298 0.007772 -0.005559
								CHANNELS 3 Zrotation Yrotation Xrotation
								End Site
								{
									OFFSET 0.000000 0.000000 0.000000
								}
							}
						}
					}
				}
			}
		}
	}
}
MOTION
Frames: 10
Frame Time: 0.050000
0.000000 0.934719 0.000000 -0.996674 3.281744 -7.334862 5.036282 0.484195 12.898241 -3.397507 0.365353 -2.206831 5.464776 12.818787 7.155528 0.000000 0.000000 0.000000 -2.754775 -0.766962 9.265297 4.999900 -0.600142 2.228377 -8.019077 -19.801332 7.388614 0.000000 0.000000 0.000000 4.117873 0.209231 -1.931715 -6.403093 2.627837 -15.875671 -1.088320 4.547350 21.717134 10.117503 -7.433199 -6.637340 0.000000 0.000000 0.000000 -21.892970 -6.156876 -0.015373 -53.251426 3.144521 -9.163299 -0.641589 -23.642013 0.980911 0.000000 0.000000 0.000000 29.389234 -4.605830 -2.442464 55.808843 0.058444 -8.054697 -1.175426 26.440460 1.414446 0.000000 0.000000 0.000000
-0.000786 0.934240 0.001929 -1.096651 2.262228 -6.663847 5.023194 0.507139 12.552317 -3.343153 0.368273 -2.409086 5.972200 13.678167 7.286697 0.000000 0.000000 0.000000 -2.379907 -0.720027 8.666294 4.503861 -0.518179 2.016591 -7.684710 -19.124220 6.949294 0.000000 0.000000 0.000000 4.253702 0.318593 -3.406105 -6.764465 2.758928 -14.845227 -1.068280 5.463321 20.205928 10.599906 -8.989515 -2.424260 0.000000 0.000000 0.000000 -23.428430 -5.918343 -0.442404 -51.233341 4.186324 -8.994933 -0.614483 -23.826831 0.949943 0.000000 0.000000 0.000000 32.103172 -4.419287 -2.496035 54.816401 -1.406500 -8.546843 -2.396025 27.412332 1.183845 0.000000 0.000000 0.000000
-0.001301 0.933640 0.005390 -0.813344 1.785610 -7.093147 4.884507 0.567002 13.050170 -3.626128 0.395465 -1.885945 6.166077 13.996047 7.253582 0.000000 0.000000 0.000000 -2.737342 -0.765740 9.671834 4.502680 -0.511525 1.427253 -7.433781 -18.623674 6.542173 0.000000 0.000000 0.000000 4.188612 0.303444 -3.141955 -7.544071 2.886652 -17.435881 -0.263665 5.246831 22.822890 9.734121 -7.460584 -5.567780 0.000000 0.000000 0.000000 -22.077291 -6.259639 0.200493 -51.855536 3.261724 -9.119873 0.262212 -23.481777 0.819240 0.000000 0.000000 0.000000 30.773390 -4.506224 -2.600883 54.876289 -1.227505 -8.626633 1.308800 25.754868 1.825199 0.000000 0.000000 0.000000
-0.001645 0.933649 0.010585 -0.594322 1.620944 -7.787733 4.231183 0.721723 14.428090 -2.782620 0.325247 -2.318372 6.198631 14.098007 7.526398 0.000000 0.000000 0.000000 -2.353784 -0.847376 10.247128 3.347416 -0.356146 2.366497 -7.467621 -18.695569 6.257184 0.000000 0.000000 0.000000 4.014980 0.323130 -3.372397 -7.484859 2.908782 -16.595618 -0.420545 5.284068 22.468336 9.739938 -7.775195 -4.271876 0.000000 0.000000 0.000000 -21.235051 -6.906662 0.636517 -53.252679 3.132894 -9.315425 0.781273 -24.900019 0.758335 0.000000 0.000000 0.000000 29.966852 -4.100791 -2.295204 55.652709 -1.370985 -8.701168 1.127072 26.735059 1.877440 0.000000 0.000000 0.000000
-0.001645 0.932658 0.016987 -0.726143 1.274056 -8.002348 4.158043 0.745388 14.373104 -2.422770 0.278195 -0.950088 6.510706 14.563789 7.098032 0.000000 0.000000 0.000000 -2.485033 -0.827395 10.238401 3.745374 -0.399920 3.517906 -7.365900 -18.474607 5.743512 0.000000 0.000000 0.000000 3.983820 0.315285 -3.230630 -6.679805 2.695438 -15.347840 -0.833155 5.110046 21.035000 9.029554 -7.007362 -4.572219 0.000000 0.000000 0.000000 -20.823535 -7.092450 0.829527 -53.376598 2.715390 -9.041442 0.016719 -24.925354 0.920481 0.000000 0.000000 0.000000 29.264662 -3.913600 -2.355584 55.992086 -1.422110 -8.533990 0.254396 26.658247 1.638282 0.000000 0.000000 0.000000
-0.001204 0.931224 0.023991 -0.985716 0.770502 -8.116842 4.190217 0.796791 15.069820 -2.094291 0.247741 -0.988342 6.824716 15.057931 6.773947 0.000000 0.000000 0.000000 -2.099455 -0.812028 9.756600 3.417833 -0.331593 5.361690 -7.326684 -18.360952 5.099130 0.000000 0.000000 0.000000 3.746910 0.284649 -2.897345 -6.806405 2.687248 -16.336475 0.100457 4.372631 21.787660 8.831839 -7.237462 -3.474592 0.000000 0.000000 0.000000 -21.791859 -8.260450 1.782158 -53.163454 2.173247 -8.902142 -0.152054 -24.004740 0.985732 0.000000 0.000000 0.000000 29.017710 -2.480396 -1.749511 55.303143 -0.839827 -8.204754 -0.320887 24.736576 1.303236 0.000000 0.000000 0.000000
-0.000092 0.931326 0.030244 -0.954804 0.578258 -7.448905 4.218094 0.765838 14.454076 -2.416471 0.273293 -0.417533 6.944659 15.264518 6.852800 0.000000 0.000000 0.000000 -2.147453 -0.624962 7.659192 3.373294 -0.292136 8.477598 -7.455980 -18.607600 5.128779 0.000000 0.000000 0.000000 3.956193 0.263237 -2.593721 -6.451166 2.580638 -15.769270 -0.068497 3.949588 21.916917 8.833079 -7.281751 -3.566524 0.000000 0.000000 0.000000 -22.615789 -9.486356 2.631435 -52.633293 1.501235 -8.561737 -0.442960 -25.202481 1.127661 0.000000 0.000000 0.000000 29.635917 -0.772527 -0.821822 53.256419 -0.294842 -7.738996 -0.601275 24.670856 1.182753 0.000000 0.000000 0.000000
0.001130 0.930389 0.035255 -0.748304 0.281430 -5.792632 3.883491 0.718877 12.821038 -2.596265 0.288731 -0.071988 7.235808 15.724203 6.666091 0.000000 0.000000 0.000000 -2.620594 -0.212246 3.019171 3.823540 -0.336608 13.981803 -7.707006 -19.086994 5.308817 0.000000 0.000000 0.000000 3.682398 -0.000672 0.595898 -6.660344 2.546050 -17.736210 0.585152 3.210015 23.316699 8.468184 -6.622972 -5.704335 0.000000 0.000000 0.000000 -22.987257 -11.997719 4.489540 -51.880780 -1.906080 -7.248169 0.311685 -25.354973 1.025476 0.000000 0.000000 0.000000 29.593425 2.043701 0.766662 51.293156 2.648727 -6.399439 -1.430279 23.547380 0.892544 0.000000 0.000000 0.000000
0.002401 0.929450 0.038863 -0.493730 -0.531043 -4.229338 3.103929 0.676248 10.511239 -2.274071 0.232779 1.594423 7.886750 16.818673 6.540336 0.000000 0.000000 0.000000 -3.236538 0.198984 -2.134514 4.747182 -0.518921 20.164593 -8.307234 -20.283971 6.339640 0.000000 0.000000 0.000000 3.985161 -0.352667 4.987875 -6.062955 2.337133 -17.285191 -0.374787 3.569429 22.660235 8.974209 -6.519653 -8.124144 0.000000 0.000000 0.000000 -22.029536 -14.455813 5.929005 -51.061397 -6.092826 -5.397619 0.706857 -26.416937 0.967220 0.000000 0.000000 0.000000 29.198327 5.979137 3.304674 48.915419 6.901236 -4.457534 -2.613972 22.147238 0.547882 0.000000 0.000000 0.000000
0.002999 0.925156 0.041468 -0.509421 -1.760573 -1.641348 3.002768 0.495057 7.538058 -2.760913 0.293174 2.504243 8.834130 18.411614 5.388188 0.000000 0.000000 0.000000 -3.126346 0.721351 -8.858115 5.380745 -0.615088 26.995057 -8.652820 -20.992617 3.877550 0.000000 0.000000 0.000000 4.030020 -0.816426 10.744352 -6.603537 2.402697 -18.264601 0.364386 2.115026 22.885708 7.972526 -6.080865 -7.709405 0.000000 0.000000 0.000000 -25.228658 -16.728594 8.327194 -45.422744 -11.173399 -3.284358 0.535253 -27.030041 1.061502 0.000000 0.000000 0.000000 30.728223 10.687058 5.606560 42.857844 11.913943 -2.231112 -3.424034 20.938166 0.249246 0.000000 0.000000 0.000000
